<mxfile host="65bd71144e">
    <diagram id="f4UFMXPBsdthh5lr4RJp" name="Page-1">
        <mxGraphModel dx="702" dy="399" grid="0" gridSize="10" guides="1" tooltips="1" connect="1" arrows="1" fold="1" page="1" pageScale="1" pageWidth="1654" pageHeight="2336" background="#ffffff" math="0" shadow="0">
            <root>
                <mxCell id="0"/>
                <mxCell id="1" parent="0"/>
                <mxCell id="O5RU_v-OWHGVvYax1SoA-145" value="&lt;span style=&quot;color: rgb(0, 0, 0);&quot;&gt;thread: main&lt;/span&gt;" style="shape=process;whiteSpace=wrap;html=1;backgroundOutline=1;" vertex="1" parent="1">
                    <mxGeometry x="103" y="110" width="407" height="40" as="geometry"/>
                </mxCell>
                <mxCell id="87" value="" style="rounded=1;whiteSpace=wrap;html=1;absoluteArcSize=1;arcSize=31;strokeWidth=1;gradientColor=default;fillColor=none;dashed=1;dashPattern=1 2;perimeterSpacing=11;strokeColor=default;fontColor=default;" vertex="1" parent="1">
                    <mxGeometry x="237" y="290" width="526" height="76" as="geometry"/>
                </mxCell>
                <mxCell id="85" value="" style="rounded=1;whiteSpace=wrap;html=1;absoluteArcSize=1;arcSize=31;strokeWidth=1;gradientColor=default;fillColor=none;dashed=1;dashPattern=1 2;perimeterSpacing=11;strokeColor=default;fontColor=default;" vertex="1" parent="1">
                    <mxGeometry x="359" y="199" width="404" height="76" as="geometry"/>
                </mxCell>
                <mxCell id="14" value="" style="edgeStyle=none;html=1;" parent="1" source="2" edge="1">
                    <mxGeometry relative="1" as="geometry">
                        <mxPoint x="510" y="130" as="targetPoint"/>
                    </mxGeometry>
                </mxCell>
                <mxCell id="2" value="START" style="ellipse;whiteSpace=wrap;html=1;fillColor=#d5e8d4;strokeColor=#82b366;" parent="1" vertex="1">
                    <mxGeometry x="549" y="110.25" width="70" height="40" as="geometry"/>
                </mxCell>
                <mxCell id="29" style="edgeStyle=none;html=1;entryX=0;entryY=0.5;entryDx=0;entryDy=0;" parent="1" source="3" target="4" edge="1">
                    <mxGeometry relative="1" as="geometry"/>
                </mxCell>
                <mxCell id="3" value="THREAD INITIALIZER" style="shape=hexagon;perimeter=hexagonPerimeter2;whiteSpace=wrap;html=1;fixedSize=1;rotation=0;" parent="1" vertex="1">
                    <mxGeometry x="370" y="209.96" width="103.75" height="41.56" as="geometry"/>
                </mxCell>
                <mxCell id="18" style="edgeStyle=none;html=1;entryX=1;entryY=0.5;entryDx=0;entryDy=0;" parent="1" source="4" edge="1">
                    <mxGeometry relative="1" as="geometry">
                        <Array as="points">
                            <mxPoint x="810" y="230"/>
                            <mxPoint x="810" y="530"/>
                        </Array>
                        <mxPoint x="630" y="530" as="targetPoint"/>
                    </mxGeometry>
                </mxCell>
                <mxCell id="4" value="thread: Input" style="shape=process;whiteSpace=wrap;html=1;backgroundOutline=1;" parent="1" vertex="1">
                    <mxGeometry x="536.88" y="210" width="210" height="40" as="geometry"/>
                </mxCell>
                <mxCell id="5" value="&lt;span style=&quot;color: rgb(0, 0, 0);&quot;&gt;thread: Interrupt&lt;/span&gt;" style="shape=process;whiteSpace=wrap;html=1;backgroundOutline=1;" parent="1" vertex="1">
                    <mxGeometry x="536.88" y="310" width="210" height="40" as="geometry"/>
                </mxCell>
                <mxCell id="6" value="&lt;span style=&quot;color: rgb(0, 0, 0);&quot;&gt;thread: main_app&lt;/span&gt;" style="shape=process;whiteSpace=wrap;html=1;backgroundOutline=1;" parent="1" vertex="1">
                    <mxGeometry x="536.88" y="410" width="210" height="40" as="geometry"/>
                </mxCell>
                <mxCell id="23" style="edgeStyle=none;html=1;exitX=0.856;exitY=1.001;exitDx=0;exitDy=0;exitPerimeter=0;" parent="1" target="3" edge="1">
                    <mxGeometry relative="1" as="geometry">
                        <mxPoint x="421.90999999999985" y="149.99999999999997" as="sourcePoint"/>
                    </mxGeometry>
                </mxCell>
                <mxCell id="19" style="edgeStyle=none;html=1;entryX=1;entryY=0.5;entryDx=0;entryDy=0;exitX=1;exitY=0.5;exitDx=0;exitDy=0;" parent="1" source="5" edge="1">
                    <mxGeometry relative="1" as="geometry">
                        <mxPoint x="747" y="230" as="sourcePoint"/>
                        <mxPoint x="630" y="530" as="targetPoint"/>
                        <Array as="points">
                            <mxPoint x="810" y="330"/>
                            <mxPoint x="810" y="530"/>
                        </Array>
                    </mxGeometry>
                </mxCell>
                <mxCell id="20" style="edgeStyle=none;html=1;entryX=1;entryY=0.5;entryDx=0;entryDy=0;exitX=1;exitY=0.5;exitDx=0;exitDy=0;" parent="1" source="6" edge="1">
                    <mxGeometry relative="1" as="geometry">
                        <mxPoint x="747" y="330" as="sourcePoint"/>
                        <mxPoint x="630" y="530" as="targetPoint"/>
                        <Array as="points">
                            <mxPoint x="810" y="430"/>
                            <mxPoint x="810" y="530"/>
                        </Array>
                    </mxGeometry>
                </mxCell>
                <mxCell id="30" style="edgeStyle=none;html=1;entryX=0;entryY=0.5;entryDx=0;entryDy=0;" parent="1" source="21" target="5" edge="1">
                    <mxGeometry relative="1" as="geometry"/>
                </mxCell>
                <mxCell id="21" value="THREAD INITIALIZER" style="shape=hexagon;perimeter=hexagonPerimeter2;whiteSpace=wrap;html=1;fixedSize=1;rotation=0;" parent="1" vertex="1">
                    <mxGeometry x="263.75" y="309.96" width="103.75" height="41.56" as="geometry"/>
                </mxCell>
                <mxCell id="25" style="edgeStyle=none;html=1;exitX=0.561;exitY=1.004;exitDx=0;exitDy=0;entryX=0.5;entryY=0;entryDx=0;entryDy=0;exitPerimeter=0;" parent="1" target="21" edge="1">
                    <mxGeometry relative="1" as="geometry">
                        <mxPoint x="315.7099999999998" y="150.11999999999998" as="sourcePoint"/>
                    </mxGeometry>
                </mxCell>
                <mxCell id="31" style="edgeStyle=none;html=1;exitX=0.273;exitY=1.001;exitDx=0;exitDy=0;entryX=0.5;entryY=0;entryDx=0;entryDy=0;exitPerimeter=0;" parent="1" target="33" edge="1">
                    <mxGeometry relative="1" as="geometry">
                        <mxPoint x="212.02999999999997" y="149.99999999999997" as="sourcePoint"/>
                    </mxGeometry>
                </mxCell>
                <mxCell id="35" style="edgeStyle=none;html=1;entryX=0;entryY=0.5;entryDx=0;entryDy=0;" parent="1" source="33" target="6" edge="1">
                    <mxGeometry relative="1" as="geometry"/>
                </mxCell>
                <mxCell id="33" value="THREAD INITIALIZER" style="shape=hexagon;perimeter=hexagonPerimeter2;whiteSpace=wrap;html=1;fixedSize=1;rotation=0;" parent="1" vertex="1">
                    <mxGeometry x="160" y="409.8" width="103.75" height="41.56" as="geometry"/>
                </mxCell>
                <mxCell id="39" style="edgeStyle=none;html=1;entryX=0;entryY=0.5;entryDx=0;entryDy=0;" edge="1" parent="1" source="40" target="42">
                    <mxGeometry relative="1" as="geometry"/>
                </mxCell>
                <mxCell id="40" value="THREAD INITIALIZER" style="shape=hexagon;perimeter=hexagonPerimeter2;whiteSpace=wrap;html=1;fixedSize=1;rotation=0;" vertex="1" parent="1">
                    <mxGeometry x="370" y="209.96" width="103.75" height="41.56" as="geometry"/>
                </mxCell>
                <mxCell id="41" style="edgeStyle=none;html=1;" edge="1" parent="1" source="42">
                    <mxGeometry relative="1" as="geometry">
                        <Array as="points">
                            <mxPoint x="810" y="230"/>
                            <mxPoint x="810" y="530"/>
                        </Array>
                        <mxPoint x="631" y="530" as="targetPoint"/>
                    </mxGeometry>
                </mxCell>
                <mxCell id="42" value="thread: InputEventHandler" style="shape=process;whiteSpace=wrap;html=1;backgroundOutline=1;" vertex="1" parent="1">
                    <mxGeometry x="536.88" y="210" width="210" height="40" as="geometry"/>
                </mxCell>
                <mxCell id="43" value="&lt;span style=&quot;color: rgb(0, 0, 0);&quot;&gt;thread: HW sim Interrupt&lt;/span&gt;" style="shape=process;whiteSpace=wrap;html=1;backgroundOutline=1;" vertex="1" parent="1">
                    <mxGeometry x="536.88" y="310" width="210" height="40" as="geometry"/>
                </mxCell>
                <mxCell id="44" value="&lt;span style=&quot;color: rgb(0, 0, 0);&quot;&gt;thread: mainApp&lt;/span&gt;" style="shape=process;whiteSpace=wrap;html=1;backgroundOutline=1;" vertex="1" parent="1">
                    <mxGeometry x="536.88" y="410" width="210" height="40" as="geometry"/>
                </mxCell>
                <mxCell id="45" style="edgeStyle=none;html=1;exitX=0.856;exitY=1.001;exitDx=0;exitDy=0;exitPerimeter=0;" edge="1" parent="1" target="40">
                    <mxGeometry relative="1" as="geometry">
                        <mxPoint x="421.90999999999985" y="149.99999999999997" as="sourcePoint"/>
                    </mxGeometry>
                </mxCell>
                <mxCell id="47" style="edgeStyle=none;html=1;entryX=1;entryY=0.5;entryDx=0;entryDy=0;exitX=1;exitY=0.5;exitDx=0;exitDy=0;" edge="1" parent="1" source="43">
                    <mxGeometry relative="1" as="geometry">
                        <mxPoint x="747" y="230" as="sourcePoint"/>
                        <mxPoint x="630" y="530" as="targetPoint"/>
                        <Array as="points">
                            <mxPoint x="810" y="330"/>
                            <mxPoint x="810" y="530"/>
                        </Array>
                    </mxGeometry>
                </mxCell>
                <mxCell id="48" style="edgeStyle=none;html=1;entryX=1;entryY=0.5;entryDx=0;entryDy=0;exitX=1;exitY=0.5;exitDx=0;exitDy=0;" edge="1" parent="1" source="44">
                    <mxGeometry relative="1" as="geometry">
                        <mxPoint x="747" y="330" as="sourcePoint"/>
                        <mxPoint x="630" y="530" as="targetPoint"/>
                        <Array as="points">
                            <mxPoint x="810" y="430"/>
                            <mxPoint x="810" y="530"/>
                        </Array>
                    </mxGeometry>
                </mxCell>
                <mxCell id="49" style="edgeStyle=none;html=1;entryX=0;entryY=0.5;entryDx=0;entryDy=0;" edge="1" parent="1" source="50" target="43">
                    <mxGeometry relative="1" as="geometry"/>
                </mxCell>
                <mxCell id="50" value="THREAD INITIALIZER" style="shape=hexagon;perimeter=hexagonPerimeter2;whiteSpace=wrap;html=1;fixedSize=1;rotation=0;" vertex="1" parent="1">
                    <mxGeometry x="263.75" y="309.96" width="103.75" height="41.56" as="geometry"/>
                </mxCell>
                <mxCell id="51" style="edgeStyle=none;html=1;exitX=0.561;exitY=1.004;exitDx=0;exitDy=0;entryX=0.5;entryY=0;entryDx=0;entryDy=0;exitPerimeter=0;" edge="1" parent="1" target="50">
                    <mxGeometry relative="1" as="geometry">
                        <mxPoint x="315.7099999999998" y="150.11999999999998" as="sourcePoint"/>
                    </mxGeometry>
                </mxCell>
                <mxCell id="52" style="edgeStyle=none;html=1;exitX=0.273;exitY=1.001;exitDx=0;exitDy=0;entryX=0.5;entryY=0;entryDx=0;entryDy=0;exitPerimeter=0;" edge="1" parent="1" target="54">
                    <mxGeometry relative="1" as="geometry">
                        <mxPoint x="212.02999999999997" y="149.99999999999997" as="sourcePoint"/>
                    </mxGeometry>
                </mxCell>
                <mxCell id="53" style="edgeStyle=none;html=1;entryX=0;entryY=0.5;entryDx=0;entryDy=0;" edge="1" parent="1" source="54" target="44">
                    <mxGeometry relative="1" as="geometry"/>
                </mxCell>
                <mxCell id="54" value="THREAD INITIALIZER" style="shape=hexagon;perimeter=hexagonPerimeter2;whiteSpace=wrap;html=1;fixedSize=1;rotation=0;" vertex="1" parent="1">
                    <mxGeometry x="160" y="409.8" width="103.75" height="41.56" as="geometry"/>
                </mxCell>
                <mxCell id="55" style="edgeStyle=none;html=1;entryX=0.5;entryY=1;entryDx=0;entryDy=0;" edge="1" parent="1" target="100">
                    <mxGeometry relative="1" as="geometry">
                        <Array as="points">
                            <mxPoint x="60" y="130"/>
                            <mxPoint x="61" y="585"/>
                            <mxPoint x="570" y="585"/>
                        </Array>
                        <mxPoint x="104" y="130" as="sourcePoint"/>
                        <mxPoint x="326" y="530" as="targetPoint"/>
                    </mxGeometry>
                </mxCell>
                <mxCell id="77" style="edgeStyle=none;html=1;exitX=0;exitY=0;exitDx=80;exitDy=20;exitPerimeter=0;entryX=0.14;entryY=0.028;entryDx=0;entryDy=0;dashed=1;entryPerimeter=0;" edge="1" parent="1" target="O5RU_v-OWHGVvYax1SoA-145">
                    <mxGeometry relative="1" as="geometry">
                        <mxPoint x="970" y="110.00000000000011" as="sourcePoint"/>
                        <mxPoint x="174.84000000000003" y="110.92000000000002" as="targetPoint"/>
                        <Array as="points">
                            <mxPoint x="1011" y="110"/>
                            <mxPoint x="1011" y="21"/>
                            <mxPoint x="160" y="21"/>
                        </Array>
                    </mxGeometry>
                </mxCell>
                <mxCell id="79" style="edgeStyle=none;html=1;entryX=0.5;entryY=1;entryDx=0;entryDy=0;dashed=1;exitX=0;exitY=0;exitDx=80;exitDy=20;exitPerimeter=0;" edge="1" parent="1" target="44">
                    <mxGeometry relative="1" as="geometry">
                        <mxPoint x="1070" y="558" as="targetPoint"/>
                        <mxPoint x="970" y="110.00000000000011" as="sourcePoint"/>
                        <Array as="points">
                            <mxPoint x="1067" y="110"/>
                            <mxPoint x="1069" y="479"/>
                            <mxPoint x="642" y="478"/>
                        </Array>
                    </mxGeometry>
                </mxCell>
                <mxCell id="76" style="edgeStyle=none;html=1;entryX=0.21;entryY=0.011;entryDx=0;entryDy=0;dashed=1;entryPerimeter=0;" edge="1" parent="1" target="O5RU_v-OWHGVvYax1SoA-145">
                    <mxGeometry relative="1" as="geometry">
                        <mxPoint x="891" y="142" as="sourcePoint"/>
                        <mxPoint x="415" y="110" as="targetPoint"/>
                        <Array as="points">
                            <mxPoint x="816" y="142"/>
                            <mxPoint x="816" y="63"/>
                            <mxPoint x="188" y="63"/>
                        </Array>
                    </mxGeometry>
                </mxCell>
                <mxCell id="78" style="edgeStyle=none;html=1;entryX=0;entryY=0;entryDx=80;entryDy=20;dashed=1;entryPerimeter=0;" edge="1" parent="1">
                    <mxGeometry relative="1" as="geometry">
                        <mxPoint x="694" y="409" as="sourcePoint"/>
                        <mxPoint x="970" y="150.0000000000001" as="targetPoint"/>
                        <Array as="points">
                            <mxPoint x="694" y="387"/>
                            <mxPoint x="1027" y="387"/>
                            <mxPoint x="1027" y="150"/>
                        </Array>
                    </mxGeometry>
                </mxCell>
                <mxCell id="72" value="" style="endArrow=classic;html=1;exitX=0.5;exitY=0;exitDx=0;exitDy=0;entryX=0;entryY=0;entryDx=0;entryDy=20;entryPerimeter=0;dashed=1;" edge="1" parent="1">
                    <mxGeometry width="50" height="50" relative="1" as="geometry">
                        <mxPoint x="642" y="210" as="sourcePoint"/>
                        <mxPoint x="890" y="110.00000000000011" as="targetPoint"/>
                        <Array as="points">
                            <mxPoint x="642" y="190"/>
                            <mxPoint x="642" y="110"/>
                        </Array>
                    </mxGeometry>
                </mxCell>
                <mxCell id="80" style="edgeStyle=none;html=1;entryX=0.5;entryY=1;entryDx=0;entryDy=0;dashed=1;exitX=0;exitY=0;exitDx=80;exitDy=20;exitPerimeter=0;" edge="1" parent="1" target="42">
                    <mxGeometry relative="1" as="geometry">
                        <mxPoint x="642" y="450" as="targetPoint"/>
                        <mxPoint x="970" y="110" as="sourcePoint"/>
                        <Array as="points">
                            <mxPoint x="1067" y="110"/>
                            <mxPoint x="1068" y="266"/>
                            <mxPoint x="642" y="268"/>
                        </Array>
                    </mxGeometry>
                </mxCell>
                <mxCell id="74" value="" style="group;fillColor=default;rotation=-90;" vertex="1" connectable="0" parent="1">
                    <mxGeometry x="798.995" y="143.99500000000003" width="40" height="96.57000000000008" as="geometry"/>
                </mxCell>
                <mxCell id="58" value="" style="shape=step;perimeter=stepPerimeter;whiteSpace=wrap;html=1;fixedSize=1;size=8.891003276026595;rotation=-360;" vertex="1" parent="74">
                    <mxGeometry x="-28" y="28" width="96.57" height="40" as="geometry"/>
                </mxCell>
                <mxCell id="63" value="&lt;p&gt;&lt;font style=&quot;font-size: 10px; line-height: 80%;&quot;&gt;INT EVENT QUEUE&lt;/font&gt;&lt;/p&gt;" style="text;html=1;align=center;verticalAlign=middle;whiteSpace=wrap;rounded=0;fillColor=default;rotation=0;" vertex="1" parent="74">
                    <mxGeometry x="-14" y="33" width="67" height="30" as="geometry"/>
                </mxCell>
                <mxCell id="82" style="edgeStyle=none;html=1;exitX=0.75;exitY=0;exitDx=0;exitDy=0;entryX=0;entryY=0.5;entryDx=0;entryDy=0;dashed=1;" edge="1" parent="1" source="42" target="58">
                    <mxGeometry relative="1" as="geometry">
                        <Array as="points">
                            <mxPoint x="695" y="192"/>
                        </Array>
                    </mxGeometry>
                </mxCell>
                <mxCell id="83" style="edgeStyle=none;html=1;exitX=1;exitY=0.5;exitDx=0;exitDy=0;entryX=0.75;entryY=0;entryDx=0;entryDy=0;dashed=1;" edge="1" parent="1" source="58" target="43">
                    <mxGeometry relative="1" as="geometry">
                        <Array as="points">
                            <mxPoint x="899" y="192"/>
                            <mxPoint x="899" y="282"/>
                            <mxPoint x="695" y="282"/>
                        </Array>
                    </mxGeometry>
                </mxCell>
                <mxCell id="84" style="edgeStyle=none;html=1;entryX=0.5;entryY=1;entryDx=0;entryDy=0;dashed=1;exitX=0;exitY=0;exitDx=80;exitDy=20;exitPerimeter=0;" edge="1" parent="1" target="43">
                    <mxGeometry relative="1" as="geometry">
                        <mxPoint x="642" y="250" as="targetPoint"/>
                        <mxPoint x="970" y="110" as="sourcePoint"/>
                        <Array as="points">
                            <mxPoint x="1067" y="110"/>
                            <mxPoint x="1068" y="373"/>
                            <mxPoint x="642" y="373"/>
                        </Array>
                    </mxGeometry>
                </mxCell>
                <mxCell id="88" value="" style="rounded=1;whiteSpace=wrap;html=1;absoluteArcSize=1;arcSize=31;strokeWidth=1;gradientColor=default;fillColor=none;dashed=1;dashPattern=1 2;perimeterSpacing=11;strokeColor=default;fontColor=default;" vertex="1" parent="1">
                    <mxGeometry x="146" y="391" width="617" height="76" as="geometry"/>
                </mxCell>
                <mxCell id="89" value="A THREAD AREA" style="rounded=1;whiteSpace=wrap;html=1;absoluteArcSize=1;arcSize=20;strokeWidth=1;gradientColor=default;fillColor=none;dashed=1;dashPattern=1 2;perimeterSpacing=11;" vertex="1" parent="1">
                    <mxGeometry x="60" y="620" width="119" height="53" as="geometry"/>
                </mxCell>
                <mxCell id="93" value="" style="group" vertex="1" connectable="0" parent="1">
                    <mxGeometry x="389" y="618" width="128" height="55" as="geometry"/>
                </mxCell>
                <mxCell id="90" value="" style="endArrow=classic;html=1;" edge="1" parent="93">
                    <mxGeometry width="50" height="50" relative="1" as="geometry">
                        <mxPoint y="55" as="sourcePoint"/>
                        <mxPoint x="55" as="targetPoint"/>
                    </mxGeometry>
                </mxCell>
                <mxCell id="92" value="&lt;font&gt;Function call&amp;nbsp;&lt;/font&gt;&lt;div&gt;&lt;font&gt;direction&lt;/font&gt;&lt;/div&gt;" style="text;html=1;align=center;verticalAlign=middle;whiteSpace=wrap;rounded=0;" vertex="1" parent="93">
                    <mxGeometry x="36" y="16" width="92" height="30" as="geometry"/>
                </mxCell>
                <mxCell id="94" value="" style="group" vertex="1" connectable="0" parent="1">
                    <mxGeometry x="530" y="618" width="128" height="55" as="geometry"/>
                </mxCell>
                <mxCell id="95" value="" style="endArrow=classic;html=1;dashed=1;dashPattern=8 8;" edge="1" parent="94">
                    <mxGeometry width="50" height="50" relative="1" as="geometry">
                        <mxPoint y="55" as="sourcePoint"/>
                        <mxPoint x="55" as="targetPoint"/>
                    </mxGeometry>
                </mxCell>
                <mxCell id="96" value="&lt;font&gt;Data access /&lt;/font&gt;&lt;div&gt;&lt;font&gt;change&amp;nbsp;&lt;span style=&quot;background-color: transparent; color: rgb(63, 63, 63);&quot;&gt;direction&lt;/span&gt;&lt;/font&gt;&lt;/div&gt;" style="text;html=1;align=center;verticalAlign=middle;whiteSpace=wrap;rounded=0;" vertex="1" parent="94">
                    <mxGeometry x="36" y="16" width="92" height="30" as="geometry"/>
                </mxCell>
                <mxCell id="133" value="" style="edgeStyle=none;html=1;" edge="1" parent="1" source="100" target="132">
                    <mxGeometry relative="1" as="geometry"/>
                </mxCell>
                <mxCell id="100" value="&lt;p&gt;Finalizer&lt;/p&gt;" style="shape=process;whiteSpace=wrap;html=1;backgroundOutline=1;" vertex="1" parent="1">
                    <mxGeometry x="510" y="509" width="121" height="42" as="geometry"/>
                </mxCell>
                <mxCell id="107" value="" style="group" vertex="1" connectable="0" parent="1">
                    <mxGeometry x="893" y="94" width="77" height="72.5" as="geometry"/>
                </mxCell>
                <mxCell id="105" value="" style="rounded=0;whiteSpace=wrap;html=1;" vertex="1" parent="107">
                    <mxGeometry width="77" height="72.5" as="geometry"/>
                </mxCell>
                <mxCell id="106" value="" style="endArrow=none;html=1;exitX=0;exitY=0.5;exitDx=0;exitDy=0;entryX=1;entryY=0.5;entryDx=0;entryDy=0;" edge="1" parent="107" source="105" target="105">
                    <mxGeometry width="50" height="50" relative="1" as="geometry">
                        <mxPoint x="-31" y="4.6911764705882355" as="sourcePoint"/>
                        <mxPoint x="19" y="-37.955882352941174" as="targetPoint"/>
                    </mxGeometry>
                </mxCell>
                <mxCell id="108" value="&lt;span style=&quot;color: rgb(0, 0, 0);&quot;&gt;simStatus&lt;/span&gt;" style="text;html=1;align=center;verticalAlign=middle;whiteSpace=wrap;rounded=0;" vertex="1" parent="107">
                    <mxGeometry x="8.5" y="3" width="60" height="30" as="geometry"/>
                </mxCell>
                <mxCell id="109" value="&lt;span style=&quot;color: rgb(63, 63, 63);&quot;&gt;simFlag&lt;/span&gt;" style="text;html=1;align=center;verticalAlign=middle;whiteSpace=wrap;rounded=0;" vertex="1" parent="107">
                    <mxGeometry x="5" y="40" width="60" height="30" as="geometry"/>
                </mxCell>
                <mxCell id="110" value="&lt;font style=&quot;&quot;&gt;global vars&lt;/font&gt;" style="text;html=1;align=center;verticalAlign=middle;whiteSpace=wrap;rounded=0;fontColor=default;" vertex="1" parent="1">
                    <mxGeometry x="892" y="71" width="78" height="19" as="geometry"/>
                </mxCell>
                <mxCell id="113" value="STOP" style="ellipse;whiteSpace=wrap;html=1;" vertex="1" parent="1">
                    <mxGeometry x="230" y="1338" width="70" height="40" as="geometry"/>
                </mxCell>
                <mxCell id="117" value="" style="endArrow=classic;html=1;dashed=1;" edge="1" parent="1">
                    <mxGeometry width="50" height="50" relative="1" as="geometry">
                        <mxPoint x="439" y="108" as="sourcePoint"/>
                        <mxPoint x="890" y="110" as="targetPoint"/>
                        <Array as="points">
                            <mxPoint x="439" y="40"/>
                            <mxPoint x="846" y="41"/>
                            <mxPoint x="846" y="110"/>
                        </Array>
                    </mxGeometry>
                </mxCell>
                <mxCell id="118" value="[W] STATUS_INIT" style="text;html=1;align=center;verticalAlign=middle;whiteSpace=wrap;rounded=0;fillColor=default;" vertex="1" parent="1">
                    <mxGeometry x="564" y="31" width="101" height="17" as="geometry"/>
                </mxCell>
                <mxCell id="121" value="[R?] STATUS_STOPPED" style="text;html=1;align=center;verticalAlign=middle;whiteSpace=wrap;rounded=0;fillColor=default;" vertex="1" parent="1">
                    <mxGeometry x="205" y="10" width="146" height="17" as="geometry"/>
                </mxCell>
                <mxCell id="128" value="[R?] STATUS_STOPPED" style="text;html=1;align=center;verticalAlign=middle;whiteSpace=wrap;rounded=0;fillColor=default;rotation=90;" vertex="1" parent="1">
                    <mxGeometry x="1007" y="177" width="146" height="17" as="geometry"/>
                </mxCell>
                <mxCell id="129" value="[R?] FLAG_RENDER_REQ" style="text;html=1;align=center;verticalAlign=middle;whiteSpace=wrap;rounded=0;fillColor=default;" vertex="1" parent="1">
                    <mxGeometry x="207" y="53" width="151" height="17" as="geometry"/>
                </mxCell>
                <mxCell id="130" value="[W] STATUS_STOPPED" style="text;html=1;align=center;verticalAlign=middle;whiteSpace=wrap;rounded=0;fillColor=default;" vertex="1" parent="1">
                    <mxGeometry x="665" y="101" width="134" height="17" as="geometry"/>
                </mxCell>
                <mxCell id="132" value="STOP" style="ellipse;whiteSpace=wrap;html=1;fillColor=#f8cecc;strokeColor=#b85450;" vertex="1" parent="1">
                    <mxGeometry x="180" y="511" width="70" height="40" as="geometry"/>
                </mxCell>
                <mxCell id="134" value="" style="endArrow=classic;html=1;dashed=1;exitX=0.178;exitY=1.004;exitDx=0;exitDy=0;exitPerimeter=0;" edge="1" parent="1" source="O5RU_v-OWHGVvYax1SoA-145">
                    <mxGeometry width="50" height="50" relative="1" as="geometry">
                        <mxPoint x="445.7800000000001" y="149.64000000000004" as="sourcePoint"/>
                        <mxPoint x="891" y="154" as="targetPoint"/>
                        <Array as="points">
                            <mxPoint x="175" y="169"/>
                            <mxPoint x="446" y="170"/>
                            <mxPoint x="705" y="170"/>
                            <mxPoint x="705" y="155"/>
                        </Array>
                    </mxGeometry>
                </mxCell>
                <mxCell id="135" value="[W] !FLAG_RENDER_REQ" style="text;html=1;align=center;verticalAlign=middle;whiteSpace=wrap;rounded=0;fillColor=default;" vertex="1" parent="1">
                    <mxGeometry x="481" y="161" width="150" height="17" as="geometry"/>
                </mxCell>
                <mxCell id="137" value="CRITICAL SECTION" style="rounded=1;whiteSpace=wrap;html=1;absoluteArcSize=1;arcSize=20;strokeWidth=1;gradientColor=default;fillColor=none;dashed=1;perimeterSpacing=11;" vertex="1" parent="1">
                    <mxGeometry x="219" y="620" width="130" height="53" as="geometry"/>
                </mxCell>
                <mxCell id="138" value="[W] &amp;lt;val0&amp;gt; : Write the vallue (val0)&lt;div&gt;[W] !&amp;lt;val0&amp;gt;: Write invert value (~val0) / clear flag&lt;/div&gt;&lt;div&gt;[R?] &amp;lt;val0&amp;gt;: Read in a loop/if to check the value is equal val0 or not&lt;/div&gt;" style="text;html=1;align=left;verticalAlign=middle;whiteSpace=wrap;rounded=0;" vertex="1" parent="1">
                    <mxGeometry x="686" y="620" width="396" height="49" as="geometry"/>
                </mxCell>
                <mxCell id="O5RU_v-OWHGVvYax1SoA-138" value="" style="endArrow=classic;html=1;exitX=0.621;exitY=0;exitDx=0;exitDy=0;exitPerimeter=0;dashed=1;" edge="1" parent="1">
                    <mxGeometry width="50" height="50" relative="1" as="geometry">
                        <mxPoint x="254" y="110" as="sourcePoint"/>
                        <mxPoint x="889" y="110" as="targetPoint"/>
                        <Array as="points">
                            <mxPoint x="253" y="82"/>
                            <mxPoint x="833" y="84"/>
                            <mxPoint x="833" y="110"/>
                        </Array>
                    </mxGeometry>
                </mxCell>
                <mxCell id="O5RU_v-OWHGVvYax1SoA-139" value="" style="rounded=1;whiteSpace=wrap;html=1;absoluteArcSize=1;arcSize=20;strokeWidth=1;gradientColor=default;fillColor=none;dashed=1;perimeterSpacing=11;strokeColor=#000000;" vertex="1" parent="1">
                    <mxGeometry x="876" y="71" width="110" height="102" as="geometry"/>
                </mxCell>
                <mxCell id="O5RU_v-OWHGVvYax1SoA-140" value="[W] STATUS_RUNNING" style="text;html=1;align=center;verticalAlign=middle;whiteSpace=wrap;rounded=0;fillColor=default;" vertex="1" parent="1">
                    <mxGeometry x="271" y="73" width="141" height="17" as="geometry"/>
                </mxCell>
                <mxCell id="O5RU_v-OWHGVvYax1SoA-146" value="" style="group" vertex="1" connectable="0" parent="1">
                    <mxGeometry x="170" y="125.99000000000001" width="276" height="16.00999999999999" as="geometry"/>
                </mxCell>
                <mxCell id="O5RU_v-OWHGVvYax1SoA-142" value="" style="endArrow=classic;html=1;exitX=0.847;exitY=0.85;exitDx=0;exitDy=0;exitPerimeter=0;strokeColor=#A2A2A2;" edge="1" parent="O5RU_v-OWHGVvYax1SoA-146">
                    <mxGeometry width="50" height="50" relative="1" as="geometry">
                        <mxPoint x="269.86" y="16.00999999999999" as="sourcePoint"/>
                        <mxPoint y="15.009999999999991" as="targetPoint"/>
                    </mxGeometry>
                </mxCell>
                <mxCell id="O5RU_v-OWHGVvYax1SoA-143" value="timeline" style="text;html=1;align=center;verticalAlign=middle;whiteSpace=wrap;rounded=0;fontColor=#BDBDBD;fillColor=default;labelBackgroundColor=default;" vertex="1" parent="O5RU_v-OWHGVvYax1SoA-146">
                    <mxGeometry x="220" y="7" width="56" height="16" as="geometry"/>
                </mxCell>
            </root>
        </mxGraphModel>
    </diagram>
    <diagram id="jgx8LLzsc7KeiyBM0jkK" name="Page-2">
        <mxGraphModel dx="1003" dy="584" grid="0" gridSize="10" guides="1" tooltips="1" connect="1" arrows="1" fold="1" page="1" pageScale="1" pageWidth="1654" pageHeight="2336" math="0" shadow="0">
            <root>
                <mxCell id="0"/>
                <mxCell id="1" parent="0"/>
                <mxCell id="fkTCjUGQg0k7VxSdPXmm-1" value="" style="edgeStyle=none;html=1;" edge="1" parent="1" source="fkTCjUGQg0k7VxSdPXmm-2" target="fkTCjUGQg0k7VxSdPXmm-3">
                    <mxGeometry relative="1" as="geometry"/>
                </mxCell>
                <mxCell id="fkTCjUGQg0k7VxSdPXmm-2" value="START" style="ellipse;whiteSpace=wrap;html=1;" vertex="1" parent="1">
                    <mxGeometry x="78" y="947" width="70" height="40" as="geometry"/>
                </mxCell>
                <mxCell id="fkTCjUGQg0k7VxSdPXmm-3" value="setup_&lt;span style=&quot;color: rgb(63, 63, 63); background-color: transparent;&quot;&gt;finilizer&lt;/span&gt;" style="rounded=0;whiteSpace=wrap;html=1;" vertex="1" parent="1">
                    <mxGeometry x="53" y="1022" width="120" height="36" as="geometry"/>
                </mxCell>
                <mxCell id="fkTCjUGQg0k7VxSdPXmm-4" value="&lt;p style=&quot;color: rgb(59, 59, 59); background-color: rgb(255, 255, 255); font-family: &amp;quot;Droid Sans Mono&amp;quot;, &amp;quot;monospace&amp;quot;, monospace; line-height: 26px; white-space: pre;&quot;&gt;&lt;font style=&quot;line-height: 100%;&quot;&gt;&lt;span style=&quot;color: rgb(0, 16, 128);&quot;&gt;simStatus&lt;/span&gt;&lt;span style=&quot;color: rgb(59, 59, 59);&quot;&gt; &lt;/span&gt;&lt;span style=&quot;color: rgb(0, 0, 0);&quot;&gt;=&lt;/span&gt;&lt;span style=&quot;color: rgb(59, 59, 59);&quot;&gt; &lt;/span&gt;&lt;span style=&quot;color: rgb(0, 112, 193);&quot;&gt;STATUS_INIT&lt;/span&gt;&lt;/font&gt;&lt;/p&gt;" style="rounded=0;whiteSpace=wrap;html=1;" vertex="1" parent="1">
                    <mxGeometry x="53" y="1076" width="190" height="36" as="geometry"/>
                </mxCell>
            </root>
        </mxGraphModel>
    </diagram>
</mxfile>